<?xml version="1.0" standalone="no"?>
<!DOCTYPE svg PUBLIC "-//W3C//DTD SVG 20010904//EN"
 "http://www.w3.org/TR/2001/REC-SVG-20010904/DTD/svg10.dtd">
<svg version="1.0" xmlns="http://www.w3.org/2000/svg"
 width="1920.000000pt" height="1920.000000pt" viewBox="0 0 1920.000000 1920.000000"
 preserveAspectRatio="xMidYMid meet">
<metadata>
Created by potrace 1.11, written by Peter Selinger 2001-2013
</metadata>
<g transform="translate(0.000000,1920.000000) scale(0.100000,-0.100000)"
fill="#000000" stroke="none">
<path d="M12410 12920 c-245 -147 -458 -276 -475 -286 -16 -11 -173 -104 -347
-209 -175 -104 -318 -193 -318 -197 0 -4 79 -164 176 -355 97 -191 270 -532
384 -758 114 -225 317 -626 450 -890 133 -264 336 -664 450 -890 114 -225 305
-603 425 -840 226 -446 415 -820 770 -1520 115 -225 258 -509 319 -630 148
-292 149 -295 202 -275 28 11 131 110 214 205 142 163 466 698 587 970 62 139
161 437 192 577 16 70 39 232 47 323 3 44 7 82 7 85 1 5 -15 37 -63 125 -15
28 -58 109 -95 180 -37 72 -76 144 -85 160 -10 17 -46 84 -80 150 -35 66 -77
147 -95 180 -33 60 -82 153 -170 320 -26 50 -60 113 -75 140 -15 28 -53 100
-85 160 -32 61 -72 137 -90 170 -18 33 -92 173 -165 310 -147 277 -199 376
-255 480 -21 39 -58 108 -83 155 -24 47 -64 122 -88 168 -24 45 -65 121 -90
170 -45 84 -82 154 -156 292 -19 36 -61 115 -93 175 -32 61 -70 133 -85 160
-15 28 -53 100 -85 160 -32 61 -74 139 -93 175 -64 120 -109 204 -160 300 -27
52 -65 124 -84 160 -106 199 -144 271 -173 325 -18 33 -54 101 -80 150 -74
139 -96 179 -103 186 -4 3 -207 -114 -452 -261z"/>
<path d="M6325 13121 c-5 -17 -45 -94 -165 -316 -20 -38 -61 -115 -90 -170
-29 -55 -67 -127 -85 -160 -18 -33 -58 -109 -90 -170 -32 -60 -71 -135 -88
-165 -16 -30 -52 -98 -79 -150 -48 -91 -100 -188 -158 -295 -15 -27 -53 -99
-85 -160 -119 -227 -195 -370 -260 -490 -18 -33 -56 -105 -85 -160 -118 -223
-144 -273 -178 -335 -70 -130 -111 -207 -162 -305 -71 -134 -128 -243 -215
-405 -40 -74 -96 -180 -125 -235 -29 -55 -70 -133 -91 -172 -72 -135 -116
-218 -169 -318 -29 -55 -70 -131 -90 -170 -21 -38 -59 -110 -85 -160 -48 -90
-109 -205 -150 -280 -77 -142 -174 -332 -171 -336 2 -2 6 -33 10 -69 23 -254
51 -376 148 -665 56 -165 148 -374 223 -505 26 -47 53 -95 59 -107 6 -13 14
-23 19 -23 4 0 7 -6 7 -12 0 -15 242 -396 310 -490 47 -64 250 -277 266 -279
5 0 17 -2 26 -4 10 -2 27 4 38 13 11 10 77 130 146 267 69 138 213 421 319
630 106 209 283 558 392 775 110 217 295 582 410 810 116 228 304 600 418 825
114 226 301 595 415 820 114 226 330 653 480 950 150 297 333 659 406 803 74
145 134 267 134 270 0 6 -111 77 -185 118 -11 6 -119 71 -240 144 -121 73
-233 140 -250 150 -16 9 -61 36 -100 60 -38 24 -83 51 -100 60 -16 10 -176
105 -355 212 -403 242 -367 222 -375 199z"/>
<path d="M10805 11984 c-99 -58 -232 -136 -295 -174 -112 -66 -314 -184 -610
-358 -80 -47 -178 -105 -217 -129 -40 -23 -75 -43 -77 -43 -2 0 -40 21 -83 46
-43 26 -93 55 -110 65 -18 10 -126 73 -240 140 -115 67 -221 129 -238 139 -16
9 -54 31 -83 49 -29 17 -55 31 -58 31 -3 0 -10 5 -17 11 -10 8 -262 156 -469
275 l-57 32 -39 -71 c-22 -40 -90 -166 -152 -282 -139 -259 -164 -306 -338
-630 -76 -143 -163 -304 -191 -358 -45 -83 -51 -100 -40 -113 7 -9 20 -19 29
-23 8 -3 114 -72 235 -152 121 -80 330 -219 465 -307 135 -89 250 -165 255
-169 10 -8 54 -37 370 -245 88 -58 297 -196 464 -307 167 -110 308 -201 314
-201 5 0 33 15 61 34 28 18 247 163 486 321 239 159 498 330 575 380 346 227
1011 668 1019 676 6 5 2 23 -11 46 -11 21 -38 72 -61 113 -22 41 -97 181 -167
310 -70 129 -143 263 -161 298 -104 193 -155 287 -269 497 -54 99 -101 186
-104 192 -4 9 -63 -21 -186 -93z"/>
<path d="M10920 9684 c-41 -24 -82 -48 -90 -54 -13 -8 -64 -38 -254 -149 -23
-13 -84 -49 -136 -80 -52 -32 -102 -60 -110 -64 -8 -4 -28 -16 -45 -26 -16
-11 -48 -29 -70 -41 -22 -12 -59 -35 -82 -50 -22 -15 -51 -31 -62 -35 -12 -3
-21 -11 -21 -16 0 -5 -5 -9 -10 -9 -6 0 -98 -52 -205 -115 -107 -63 -200 -115
-207 -115 -6 0 -120 64 -252 141 -133 78 -308 181 -391 229 -82 48 -242 142
-355 208 -113 66 -221 129 -240 139 -19 11 -52 31 -73 43 -22 13 -42 19 -46
14 -5 -5 -30 -49 -56 -99 -27 -49 -74 -137 -105 -195 -32 -58 -81 -150 -110
-205 -29 -55 -65 -122 -80 -150 -15 -27 -80 -149 -145 -270 -65 -121 -134
-251 -155 -290 -89 -166 -121 -227 -118 -229 25 -15 909 -600 1812 -1197 273
-181 332 -216 348 -208 10 5 211 137 446 293 235 155 526 348 647 428 121 80
388 256 594 393 206 136 392 258 413 271 l39 25 -19 32 c-11 18 -42 75 -70
127 -43 83 -182 341 -274 510 -17 30 -48 89 -70 130 -23 41 -46 84 -53 95 -6
11 -37 67 -68 125 -152 285 -235 434 -243 436 -5 1 -43 -17 -84 -42z"/>
</g>
</svg>
